<svg xmlns="http://www.w3.org/2000/svg" xmlns:xlink="http://www.w3.org/1999/xlink" style="isolation:isolate" viewBox="0 0 400 200" width="400" height="200" id="B1WWbQHoM">
    <style xmlns="http://www.w3.org/1999/xhtml">
        @-webkit-keyframes rkHxZbbQrjf_H198fXBsz_Animation{0%{-webkit-transform:  translate(0px, 0px);transform:  translate(0px, 0px);}16.67%{-webkit-transform:  translate(0px, 2px);transform:  translate(0px, 2px);}33.33%{-webkit-transform:  translate(0px, 1px);transform:  translate(0px, 1px);}50%{-webkit-transform:  translate(0px, 2px);transform:  translate(0px, 2px);}66.67%{-webkit-transform:  translate(0px, 0px);transform:  translate(0px, 0px);}83.33%{-webkit-transform:  translate(0px, 1px);transform:  translate(0px, 1px);}100%{-webkit-transform:  translate(0px, 0px);transform:  translate(0px, 0px);}}@keyframes rkHxZbbQrjf_H198fXBsz_Animation{0%{-webkit-transform:  translate(0px, 0px);transform:  translate(0px, 0px);}16.67%{-webkit-transform:  translate(0px, 2px);transform:  translate(0px, 2px);}33.33%{-webkit-transform:  translate(0px, 1px);transform:  translate(0px, 1px);}50%{-webkit-transform:  translate(0px, 2px);transform:  translate(0px, 2px);}66.67%{-webkit-transform:  translate(0px, 0px);transform:  translate(0px, 0px);}83.33%{-webkit-transform:  translate(0px, 1px);transform:  translate(0px, 1px);}100%{-webkit-transform:  translate(0px, 0px);transform:  translate(0px, 0px);}}@-webkit-keyframes SyUWWWZ7HsG_BkYEMQHjM_Animation{0%{-webkit-transform:  rotate(0deg);transform:  rotate(0deg);}100%{-webkit-transform:  rotate(-1080deg);transform:  rotate(-1080deg);}}@keyframes SyUWWWZ7HsG_BkYEMQHjM_Animation{0%{-webkit-transform:  rotate(0deg);transform:  rotate(0deg);}100%{-webkit-transform:  rotate(-1080deg);transform:  rotate(-1080deg);}}@-webkit-keyframes ryAlWb-7rsz_HJpZGQrof_Animation{0%{-webkit-transform:  rotate(0deg);transform:  rotate(0deg);}100%{-webkit-transform:  rotate(-1080deg);transform:  rotate(-1080deg);}}@keyframes ryAlWb-7rsz_HJpZGQrof_Animation{0%{-webkit-transform:  rotate(0deg);transform:  rotate(0deg);}100%{-webkit-transform:  rotate(-1080deg);transform:  rotate(-1080deg);}}@-webkit-keyframes ByQZZWXHof_SykN-7BiM_Animation{0%{-webkit-transform:  translate(0px, 0px);transform:  translate(0px, 0px);}100%{-webkit-transform:  translate(400px, 0px);transform:  translate(400px, 0px);}}@keyframes ByQZZWXHof_SykN-7BiM_Animation{0%{-webkit-transform:  translate(0px, 0px);transform:  translate(0px, 0px);}100%{-webkit-transform:  translate(400px, 0px);transform:  translate(400px, 0px);}}@-webkit-keyframes By3ZbbQrsf_HkqXZQrsf_Animation{0%{-webkit-transform:  translate(0px, 0px);transform:  translate(0px, 0px);}100%{-webkit-transform:  translate(400px, 0px);transform:  translate(400px, 0px);}}@keyframes By3ZbbQrsf_HkqXZQrsf_Animation{0%{-webkit-transform:  translate(0px, 0px);transform:  translate(0px, 0px);}100%{-webkit-transform:  translate(400px, 0px);transform:  translate(400px, 0px);}}#B1WWbQHoM *{-webkit-animation-duration:  3s;animation-duration:  3s;-webkit-animation-iteration-count:  infinite;animation-iteration-count:  infinite;-webkit-animation-timing-function:  cubic-bezier(0, 0, 1, 1);animation-timing-function:  cubic-bezier(0, 0, 1, 1);transform-box:  fill-box;-webkit-transform-origin:  50% 50%;transform-origin:  50% 50%;}#B1M-bbXHjM{-webkit-transform:  matrix(1,0,0,1,0,0);transform:  matrix(1,0,0,1,0,0);fill: rgb(0,0,0);}#By4W-ZmBsG{-webkit-transform:  matrix(1,0,0,1,0,0);transform:  matrix(1,0,0,1,0,0);fill: rgb(255,204,0);}#H1BW-W7rsG{-webkit-transform:  matrix(1,0,0,1,0,0);transform:  matrix(1,0,0,1,0,0);fill: rgb(255,204,0);}#SJIbbZ7Bsz{-webkit-transform:  matrix(1,0,0,1,0,0);transform:  matrix(1,0,0,1,0,0);fill: rgb(255,204,0);}#HyvWW-mSjG{-webkit-transform:  matrix(1,0,0,1,0,0);transform:  matrix(1,0,0,1,0,0);fill: rgb(255,204,0);}#ry_W-WmSjf{-webkit-transform:  matrix(1,0,0,1,0,0);transform:  matrix(1,0,0,1,0,0);fill: rgb(255,204,0);}#BJtZ-bXrjG{-webkit-transform:  matrix(1,0,0,1,0,0);transform:  matrix(1,0,0,1,0,0);fill: rgb(255,204,0);}#Bk5ZZ-Xrsf{-webkit-transform:  matrix(1,0,0,1,0,0);transform:  matrix(1,0,0,1,0,0);fill: rgb(255,204,0);}#SJj-Wb7Sjz{-webkit-transform:  matrix(1,0,0,1,0,0);transform:  matrix(1,0,0,1,0,0);fill: rgb(255,204,0);}#HkaWbZQHsf{-webkit-transform:  matrix(1,0,0,1,0,0);transform:  matrix(1,0,0,1,0,0);fill: rgb(255,204,0);}#H1R--b7Biz{-webkit-transform:  matrix(1,0,0,1,0,0);transform:  matrix(1,0,0,1,0,0);fill: rgb(255,204,0);}#SyJl-Wb7SsM{-webkit-transform:  matrix(1,0,0,1,0,0);transform:  matrix(1,0,0,1,0,0);fill: rgb(255,204,0);}#r1le-WZmrjz{-webkit-transform:  matrix(1,0,0,1,0,0);transform:  matrix(1,0,0,1,0,0);fill: rgb(255,204,0);}#SJZeW-bmroz{-webkit-transform:  matrix(1,0,0,1,0,0);transform:  matrix(1,0,0,1,0,0);fill: rgb(255,204,0);}#H1Me---mrsG{-webkit-transform:  matrix(1,0,0,1,0,0);transform:  matrix(1,0,0,1,0,0);fill: rgb(255,204,0);}#Hkme-ZWmrof{-webkit-transform:  matrix(1,0,0,1,0,0);transform:  matrix(1,0,0,1,0,0);fill: rgb(255,204,0);}#HJ4g-W-QSiM{-webkit-transform:  matrix(1,0,0,1,0,0);transform:  matrix(1,0,0,1,0,0);fill: rgb(255,204,0);}#BJUg-WWXroG{fill: rgb(232,78,47);}#ByDeZb-XHiG{fill: rgb(255,194,13);}#rk_gWZbXHsz{fill: rgb(218,165,9);}#rkteW-WXBiM{fill: rgb(218,165,9);}#SJqgWbWmroz{fill: rgb(255,255,255);}#Byjx-ZbmrjG{fill: rgb(255,229,155);}#BknxWbWmSsM{fill: rgb(255,255,255);}#Sy6eZbbXrjG{fill: rgb(218,165,9);}#H1kW-W-mHsG{fill: rgb(69,76,84);}#rylZZZWmSoM{fill: rgb(125,133,144);}#HyzZZbbQrjf{fill: rgb(69,76,84);}#SkXWbZZQBjM{fill: rgb(69,76,84);}#HyEZ-b-QBjf{fill: rgb(69,76,84);}#SySbZZWmHjf{fill: rgb(69,76,84);}#H1PWbWbmHof{fill: rgb(69,76,84);}#Sy_ZZZWQBiz{fill: rgb(125,133,144);}#SJqbZ-WXSof{fill: rgb(69,76,84);}#Hyi-ZZWQBoM{fill: rgb(69,76,84);}#HJ2bWbbmrsG{fill: rgb(69,76,84);}#S1pb-W-mroG{fill: rgb(69,76,84);}#SkyfWW-QriM{fill: rgb(76,186,242);}#rkbMWb-7BsG{fill: rgb(152,220,255);}#SkGf-Z-QBof{fill: rgb(152,220,255);}#BkVz--WmBsz{fill: rgb(76,186,242);}#rk8GWWbmrsG{fill: rgb(152,220,255);}#BkvM-bZmSif{fill: rgb(152,220,255);}#BJ_zWWbXBiG{fill: rgb(152,220,255);}#Hy9z-Z-mHiG{fill: rgb(76,186,242);}#B1hf-Z-QHif{fill: rgb(152,220,255);}#SkaGZ-WQBoz{fill: rgb(152,220,255);}#rkAGWWWmrjf{fill: rgb(152,220,255);}#rkg7-WW7rif{fill: rgb(76,186,242);}#r1zQZZWmBsf{fill: rgb(152,220,255);}#BkQXbZ-mSoM{fill: rgb(152,220,255);}#By4Q--ZQSif{fill: rgb(152,220,255);}#B187bWbXBsG{fill: rgb(255,229,155);}#r1wmZbW7HsG{fill: rgb(255,255,255);}#By3ZbbQrsf_HkqXZQrsf{-webkit-animation-name:  By3ZbbQrsf_HkqXZQrsf_Animation;animation-name:  By3ZbbQrsf_HkqXZQrsf_Animation;-webkit-transform-origin:  50% 50%;transform-origin:  50% 50%;-webkit-transform:  translate(0px, 0px);transform:  translate(0px, 0px);}#ByQZZWXHof_SykN-7BiM{-webkit-animation-name:  ByQZZWXHof_SykN-7BiM_Animation;animation-name:  ByQZZWXHof_SykN-7BiM_Animation;-webkit-transform-origin:  100% 50%;transform-origin:  100% 50%;-webkit-transform:  translate(0px, 0px);transform:  translate(0px, 0px);}#ryAlWb-7rsz_HJpZGQrof{-webkit-transform-origin:  50% 50%;transform-origin:  50% 50%;-webkit-transform:  rotate(0deg);transform:  rotate(0deg);-webkit-animation-name:  ryAlWb-7rsz_HJpZGQrof_Animation;animation-name:  ryAlWb-7rsz_HJpZGQrof_Animation;}#SyUWWWZ7HsG_BkYEMQHjM{-webkit-animation-name:  SyUWWWZ7HsG_BkYEMQHjM_Animation;animation-name:  SyUWWWZ7HsG_BkYEMQHjM_Animation;-webkit-transform-origin:  50% 50%;transform-origin:  50% 50%;-webkit-transform:  rotate(0deg);transform:  rotate(0deg);}#rkHxZbbQrjf_H198fXBsz{-webkit-animation-name:  rkHxZbbQrjf_H198fXBsz_Animation;animation-name:  rkHxZbbQrjf_H198fXBsz_Animation;-webkit-transform-origin:  50% 50%;transform-origin:  50% 50%;-webkit-transform:  translate(0px, 0px);transform:  translate(0px, 0px);}
    </style>
    <defs>
        <clipPath id="_clipPath_csOAUxhwDgKdODDfHzZQmxF8hhlKHisu">
            <rect width="400" height="200"/>
        </clipPath>
    </defs>
    <g clip-path="url(#_clipPath_csOAUxhwDgKdODDfHzZQmxF8hhlKHisu)" id="H1xZbbQSjz">
        <g id="S1-WZW7Bjf">
            <rect x="0" y="140" width="400" height="60" id="B1M-bbXHjM"/>
            <g id="ByQZZWXHof_SykN-7BiM" data-animator-group="true" data-animator-type="0">
                <g id="ByQZZWXHof">
                    <rect x="-60" y="188" width="30" height="10" id="By4W-ZmBsG"/>
                    <rect x="-110" y="188" width="30" height="10" id="H1BW-W7rsG"/>
                    <rect x="-160" y="188" width="30" height="10" id="SJIbbZ7Bsz"/>
                    <rect x="-210" y="188" width="30" height="10" id="HyvWW-mSjG"/>
                    <rect x="-260" y="188" width="30" height="10" id="ry_W-WmSjf"/>
                    <rect x="-310" y="188" width="30" height="10" id="BJtZ-bXrjG"/>
                    <rect x="-360" y="188" width="30" height="10" id="Bk5ZZ-Xrsf"/>
                    <rect x="-410" y="188" width="30" height="10" id="SJj-Wb7Sjz"/>
                </g>
            </g>
            <g id="By3ZbbQrsf_HkqXZQrsf" data-animator-group="true" data-animator-type="0">
                <g id="By3ZbbQrsf">
                    <rect x="350" y="188" width="30" height="10" id="HkaWbZQHsf"/>
                    <rect x="300" y="188" width="30" height="10" id="H1R--b7Biz"/>
                    <rect x="250" y="188" width="30" height="10" id="SyJl-Wb7SsM"/>
                    <rect x="200" y="188" width="30" height="10" id="r1le-WZmrjz"/>
                    <rect x="150" y="188" width="30" height="10" id="SJZeW-bmroz"/>
                    <rect x="100" y="188" width="30" height="10" id="H1Me---mrsG"/>
                    <rect x="50" y="188" width="30" height="10" id="Hkme-ZWmrof"/>
                    <rect x="0" y="188" width="30" height="10" id="HJ4g-W-QSiM"/>
                </g>
            </g>
        </g>
        <g id="rkHxZbbQrjf_H198fXBsz" data-animator-group="true" data-animator-type="0">
            <g id="rkHxZbbQrjf">
                <path d=" M 357.059 118.695 C 364.631 118.695 370.808 113.481 370.808 107.088 C 370.808 100.693 364.631 95.479 357.059 95.479 C 349.484 95.479 343.307 100.693 343.307 107.088 C 343.307 113.481 349.484 118.695 357.059 118.695 Z " fill-rule="evenodd" id="BJUg-WWXroG"/>
                <path d=" M 47.055 149.721 L 348.248 149.721 C 355.575 149.721 361.57 143.718 361.57 136.378 L 361.57 22.345 C 361.57 15.004 355.575 9 348.248 9 L 47.055 9 C 39.729 9 33.733 15.004 33.733 22.345 L 33.733 136.378 C 33.733 143.718 39.729 149.721 47.055 149.721 Z " fill-rule="evenodd" id="ByDeZb-XHiG"/>
                <path d=" M 47.89 149.721 L 347.414 149.721 C 355.199 149.721 361.57 143.341 361.57 135.542 L 361.57 127.791 L 33.733 127.791 L 33.733 135.542 C 33.733 143.341 40.103 149.721 47.89 149.721 Z " fill-rule="evenodd" id="rk_gWZbXHsz"/>
                <path d=" M 247.833 149.721 L 341.158 149.721 C 342.189 149.721 343.195 149.609 344.165 149.396 C 343.99 122.899 322.495 101.47 296.001 101.47 C 269.399 101.47 247.833 123.073 247.833 149.721" fill-rule="evenodd" id="rkteW-WXBiM"/>
                <path d=" M 346.3 120.556 L 370.358 120.556 C 374.287 120.556 377.5 123.776 377.5 127.71 L 377.5 127.711 C 377.5 131.647 374.287 134.865 370.358 134.865 L 346.3 134.865 C 342.372 134.865 339.158 131.647 339.158 127.711 L 339.158 127.71 C 339.158 123.776 342.372 120.556 346.3 120.556 Z " fill-rule="evenodd" id="SJqgWbWmroz"/>
                <path d=" M 33.733 89.309 L 39.322 89.309 C 41.552 89.309 43.375 90.849 43.375 92.729 L 43.375 110.68 C 43.375 112.562 41.552 114.101 39.322 114.101 L 33.733 114.101 L 33.733 89.309 Z " fill-rule="evenodd" id="Byjx-ZbmrjG"/>
                <path d=" M 30.017 117.337 L 55.34 117.337 C 59.475 117.337 62.857 120.724 62.857 124.867 C 62.857 129.008 59.475 132.398 55.34 132.398 L 30.017 132.398 C 25.882 132.398 22.5 129.008 22.5 124.867 C 22.5 120.724 25.882 117.337 30.017 117.337 Z " fill-rule="evenodd" id="BknxWbWmSsM"/>
                <path d=" M 64.174 149.721 L 157.496 149.721 C 158.528 149.721 159.533 149.609 160.505 149.396 C 160.329 122.899 138.834 101.47 112.341 101.47 C 85.738 101.47 64.174 123.073 64.174 149.721" fill-rule="evenodd" id="Sy6eZbbXrjG"/>
            </g>
        </g>
        <g id="ryAlWb-7rsz_HJpZGQrof" data-animator-group="true" data-animator-type="1">
            <g id="ryAlWb-7rsz">
                <path d=" M 296.002 115.654 C 314.784 115.654 330.011 130.907 330.011 149.721 C 330.011 168.538 314.784 183.789 296.002 183.789 C 277.219 183.789 261.993 168.538 261.993 149.721 C 261.993 130.907 277.219 115.654 296.002 115.654" fill-rule="evenodd" id="H1kW-W-mHsG"/>
                <path d=" M 296.002 135.436 C 303.877 135.436 310.261 141.832 310.261 149.721 C 310.261 157.611 303.877 164.007 296.002 164.007 C 288.127 164.007 281.742 157.611 281.742 149.721 C 281.742 141.832 288.127 135.436 296.002 135.436 Z " fill-rule="evenodd" id="rylZZZWmSoM"/>
                <g id="ByWZ-WZQSiz">
                    <path d=" M 296.002 135.436 C 297.382 135.436 298.502 136.557 298.502 137.94 C 298.502 139.323 297.382 140.444 296.002 140.444 C 294.621 140.444 293.502 139.323 293.502 137.94 C 293.502 136.557 294.621 135.436 296.002 135.436 Z " fill-rule="evenodd" id="HyzZZbbQrjf"/>
                    <path d=" M 307.761 147.217 C 309.142 147.217 310.261 148.339 310.261 149.722 C 310.261 151.105 309.142 152.226 307.761 152.226 C 306.381 152.226 305.261 151.105 305.261 149.722 C 305.261 148.339 306.381 147.217 307.761 147.217 Z " fill-rule="evenodd" id="SkXWbZZQBjM"/>
                    <path d=" M 296.002 158.999 C 297.382 158.999 298.502 160.12 298.502 161.503 C 298.502 162.886 297.382 164.007 296.002 164.007 C 294.621 164.007 293.502 162.886 293.502 161.503 C 293.502 160.12 294.621 158.999 296.002 158.999 Z " fill-rule="evenodd" id="HyEZ-b-QBjf"/>
                    <path d=" M 284.242 147.217 C 285.623 147.217 286.742 148.338 286.742 149.721 C 286.742 151.105 285.623 152.226 284.242 152.226 C 282.861 152.226 281.742 151.105 281.742 149.721 C 281.742 148.338 282.861 147.217 284.242 147.217 Z " fill-rule="evenodd" id="SySbZZWmHjf"/>
                </g>
            </g>
        </g>
        <g id="SyUWWWZ7HsG_BkYEMQHjM" data-animator-group="true" data-animator-type="1">
            <g id="SyUWWWZ7HsG">
                <path d=" M 112.339 115.653 C 131.12 115.653 146.347 130.906 146.347 149.721 C 146.347 168.537 131.12 183.789 112.339 183.789 C 93.555 183.789 78.329 168.537 78.329 149.721 C 78.329 130.906 93.555 115.653 112.339 115.653" fill-rule="evenodd" id="H1PWbWbmHof"/>
                <path d=" M 112.339 135.436 C 120.214 135.436 126.598 141.832 126.598 149.721 C 126.598 157.61 120.214 164.007 112.339 164.007 C 104.464 164.007 98.078 157.61 98.078 149.721 C 98.078 141.832 104.464 135.436 112.339 135.436 Z " fill-rule="evenodd" id="Sy_ZZZWQBiz"/>
                <g id="SJY--Z-7Sof">
                    <path d=" M 112.338 135.436 C 113.719 135.436 114.838 136.557 114.838 137.94 C 114.838 139.323 113.719 140.444 112.338 140.444 C 110.957 140.444 109.838 139.323 109.838 137.94 C 109.838 136.557 110.957 135.436 112.338 135.436 Z " fill-rule="evenodd" id="SJqbZ-WXSof"/>
                    <path d=" M 124.098 147.217 C 125.478 147.217 126.598 148.338 126.598 149.721 C 126.598 151.104 125.478 152.226 124.098 152.226 C 122.717 152.226 121.598 151.104 121.598 149.721 C 121.598 148.338 122.717 147.217 124.098 147.217 Z " fill-rule="evenodd" id="Hyi-ZZWQBoM"/>
                    <path d=" M 112.338 158.998 C 113.719 158.998 114.838 160.119 114.838 161.502 C 114.838 162.886 113.719 164.007 112.338 164.007 C 110.957 164.007 109.838 162.886 109.838 161.502 C 109.838 160.119 110.957 158.998 112.338 158.998 Z " fill-rule="evenodd" id="HJ2bWbbmrsG"/>
                    <path d=" M 100.578 147.217 C 101.959 147.217 103.078 148.338 103.078 149.721 C 103.078 151.104 101.959 152.225 100.578 152.225 C 99.198 152.225 98.078 151.104 98.078 149.721 C 98.078 148.338 99.198 147.217 100.578 147.217 Z " fill-rule="evenodd" id="S1pb-W-mroG"/>
                </g>
            </g>
        </g>
        <g id="ryAZWZZmBjf">
            <path d=" M 330.6 83.462 L 361.57 83.462 L 361.57 29.906 L 330.6 29.906 C 327.292 29.906 324.585 32.19 324.585 34.984 L 324.585 78.382 C 324.585 81.177 327.292 83.462 330.6 83.462 Z " fill-rule="evenodd" id="SkyfWW-QriM"/>
            <g id="rygMZWZ7HoM">
                <path d=" M 361.57 79.171 L 358.025 83.462 L 346.772 83.462 L 361.57 65.552 L 361.57 79.171" fill-rule="evenodd" id="rkbMWb-7BsG"/>
                <path d=" M 361.57 60.916 L 342.941 83.462 L 335.991 83.462 L 361.57 52.506 L 361.57 60.916" fill-rule="evenodd" id="SkGf-Z-QBof"/>
            </g>
        </g>
        <g id="HkmfW-bQrjf">
            <path d=" M 213.798 83.462 L 308.44 83.462 C 311.749 83.462 314.456 81.177 314.456 78.382 L 314.456 34.984 C 314.456 32.19 311.749 29.906 308.44 29.906 L 213.798 29.906 C 210.487 29.906 207.78 32.19 207.78 34.984 L 207.78 78.382 C 207.78 81.177 210.487 83.462 213.798 83.462 Z " fill-rule="evenodd" id="BkVz--WmBsz"/>
            <g id="BJSfbWWmHof">
                <path d=" M 299.558 29.906 L 255.305 83.462 L 248.355 83.462 L 292.608 29.906 L 299.558 29.906 Z " fill-rule="evenodd" id="rk8GWWbmrsG"/>
                <path d=" M 288.777 29.906 L 244.524 83.462 L 233.27 83.462 L 277.523 29.906 L 288.777 29.906 Z " fill-rule="evenodd" id="BkvM-bZmSif"/>
                <path d=" M 273.692 29.906 L 229.439 83.462 L 222.489 83.462 L 266.742 29.906 L 273.692 29.906 Z " fill-rule="evenodd" id="BJ_zWWbXBiG"/>
            </g>
        </g>
        <g id="rytfZ-ZQriM">
            <path d=" M 96.993 83.462 L 191.635 83.462 C 194.945 83.462 197.651 81.177 197.651 78.382 L 197.651 34.984 C 197.651 32.19 194.945 29.906 191.635 29.906 L 96.993 29.906 C 93.683 29.906 90.977 32.19 90.977 34.984 L 90.977 78.382 C 90.977 81.177 93.683 83.462 96.993 83.462" fill-rule="evenodd" id="Hy9z-Z-mHiG"/>
            <g id="B1jzWbWmBof">
                <path d=" M 182.848 29.906 L 138.594 83.462 L 131.644 83.462 L 175.898 29.906 L 182.848 29.906 Z " fill-rule="evenodd" id="B1hf-Z-QHif"/>
                <path d=" M 172.068 29.906 L 127.815 83.462 L 116.561 83.462 L 160.814 29.906 L 172.068 29.906 Z " fill-rule="evenodd" id="SkaGZ-WQBoz"/>
                <path d=" M 156.984 29.906 L 112.729 83.462 L 105.779 83.462 L 150.034 29.906 L 156.984 29.906 Z " fill-rule="evenodd" id="rkAGWWWmrjf"/>
            </g>
        </g>
        <g id="HkJQWZWXBoM">
            <path d=" M 33.733 83.462 L 74.831 83.462 C 78.141 83.462 80.848 81.177 80.848 78.382 L 80.848 34.984 C 80.848 32.19 78.141 29.906 74.831 29.906 L 33.733 29.906 L 33.733 83.462 Z " fill-rule="evenodd" id="rkg7-WW7rif"/>
            <g id="ByWQZWZmHjG">
                <path d=" M 44.57 29.906 L 33.733 43.022 L 33.733 34.609 L 37.62 29.906 L 44.57 29.906 Z " fill-rule="evenodd" id="r1zQZZWmBsf"/>
                <path d=" M 70.437 29.906 L 33.733 74.323 L 33.733 65.912 L 63.486 29.906 L 70.437 29.906" fill-rule="evenodd" id="BkQXbZ-mSoM"/>
                <path d=" M 59.656 29.906 L 33.733 61.276 L 33.733 47.657 L 48.403 29.906 L 59.656 29.906" fill-rule="evenodd" id="By4Q--ZQSif"/>
            </g>
        </g>
        <g id="HySmbWb7HoG">
            <path d=" M 46.232 87.708 C 43.153 87.708 40.632 85.332 40.632 82.427 L 40.632 66.566 C 40.632 63.662 43.153 61.287 46.232 61.287 L 46.232 87.708 Z " fill-rule="evenodd" id="B187bWbXBsG"/>
            <path d=" M 46.232 87.708 L 49.031 87.708 L 49.031 61.287 L 46.232 61.287 L 46.232 87.708 Z " fill-rule="evenodd" id="r1wmZbW7HsG"/>
        </g>
    </g>
</svg>